@startuml
enum "::LoggerLevels" as C_0002995487761459278900
enum C_0002995487761459278900 {
NONE_
INFO_
DEBUG_
WARN_
ERROR_
}
package [core] as C_0003621296378854961647 {
class "LogSettings" as C_0006639706833445665005
class C_0006639706833445665005 {
__
}
class "Log" as C_0016348104782440722134
class C_0016348104782440722134 {
__
}
}
enum "::khronos_boolean_enum_t" as C_0004858866803857458437
enum C_0004858866803857458437 {
KHRONOS_FALSE
KHRONOS_TRUE
KHRONOS_BOOLEAN_ENUM_FORCE_SIZE
}
class "::GLFWvidmode" as C_0017785097031180024373
class C_0017785097031180024373 {
__
}
class "::GLFWgammaramp" as C_0013885031836770510049
class C_0013885031836770510049 {
__
}
class "::GLFWimage" as C_0013161603514781355259
class C_0013161603514781355259 {
__
}
class "::GLFWgamepadstate" as C_0003832180380787386966
class C_0003832180380787386966 {
__
}
class "::GLFWallocator" as C_0006267435463482043089
class C_0006267435463482043089 {
__
}
package [ui] as C_0004910649491825657900 {
class "Window" as C_0009782591424950419036
class C_0009782591424950419036 {
__
}
class "Window::CreateInfo" as C_0002336784144809892012
class C_0002336784144809892012 {
__
}
}
class "::__GLsync" as C_0002763097345963043950
class C_0002763097345963043950 {
__
}
class "::_cl_event" as C_0005368023723436486008
class C_0005368023723436486008 {
__
}
class "::_cl_context" as C_0009641593689637085533
class C_0009641593689637085533 {
__
}
class "::GLFWmonitor" as C_0010142888260877035828
class C_0010142888260877035828 {
__
}
class "::GLFWcursor" as C_0011351004110183750961
class C_0011351004110183750961 {
__
}
class "::GLFWwindow" as C_0011520313121886889649
class C_0011520313121886889649 {
__
}
package [domain] as C_0009174257738057464931 {
class "Vertex" as C_0010544746732979417087
class C_0010544746732979417087 {
__
}
class "Polygon" as C_0001117776075815827793
class C_0001117776075815827793 {
__
}
class "TriMesh" as C_0003665332255534006158
class C_0003665332255534006158 {
__
}
class "NameComponent" as C_0015727311242583973851
class C_0015727311242583973851 {
__
}
class "PositionComponent" as C_0003020787640243562673
class C_0003020787640243562673 {
__
}
class "LineComponent" as C_0007673770080981316552
class C_0007673770080981316552 {
__
}
class "FaceComponent" as C_0005410130188953855426
class C_0005410130188953855426 {
__
}
class "BodyComponent" as C_0011385841506975283125
class C_0011385841506975283125 {
__
}
class "RadiusComponent" as C_0007792029716980026922
class C_0007792029716980026922 {
__
}
class "MeshComponent" as C_0004601541543057751943
class C_0004601541543057751943 {
__
}
class "SketchPlaneComponent" as C_0017265799885947486908
class C_0017265799885947486908 {
__
}
class "IGeometryBackend" as C_0008318067474097148912
class C_0008318067474097148912 {
__
}
class "Registry" as C_0002168965001534566158
class C_0002168965001534566158 {
__
}
class "GeometrySystem" as C_0008148040573944691489
class C_0008148040573944691489 {
__
}
class "Query" as C_0009688132585407544578
class C_0009688132585407544578 {
__
}
}
package [lua] as C_0001029797694165733902 {
class "CadAPI" as C_0002748428751593370483
class C_0002748428751593370483 {
__
}
class "LuaEngine" as C_0006232312961117769811
class C_0006232312961117769811 {
__
}
class "LuaFrame" as C_0003858833552866009782
class C_0003858833552866009782 {
__
}
class "LuaErrorPretty" as C_0004478309705653638278
class C_0004478309705653638278 {
__
}
}
package [vis] as C_0017596704752395622590 {
class "Light" as C_0016013204355630775624
class C_0016013204355630775624 {
__
}
class "DirectionalLight" as C_0013971934287388400616
class C_0013971934287388400616 {
__
}
class "BaseGeometry" as C_0003259825474666732097
class C_0003259825474666732097 {
__
}
class "PointCloud" as C_0005157049738103083941
class C_0005157049738103083941 {
__
}
class "FontGlyph" as C_0017275191995279928358
class C_0017275191995279928358 {
__
}
class "FontLoaderSTB" as C_0003571447943244945777
class C_0003571447943244945777 {
__
}
class "Material" as C_0006222801243379437746
class C_0006222801243379437746 {
__
}
class "Texture" as C_0004229009147989461518
class C_0004229009147989461518 {
__
}
class "FlatShadedMaterial" as C_0003408518362668672340
class C_0003408518362668672340 {
__
}
class "Shader" as C_0009794304339022573761
class C_0009794304339022573761 {
__
}
class "Mesh" as C_0011124824944198641814
class C_0011124824944198641814 {
__
}
class "GlyphAtlas" as C_0003075468144102080741
class C_0003075468144102080741 {
__
}
class "GlyphAtlas::GlyphUV" as C_0005502569225727352671
class C_0005502569225727352671 {
__
}
class "TextRenderer2D" as C_0008228739837147591974
class C_0008228739837147591974 {
__
}
class "TextRenderer2D::Vertex" as C_0014070029187782885848
class C_0014070029187782885848 {
__
}
class "StlReader" as C_0009973741300568769584
class C_0009973741300568769584 {
__
}
enum "StlFormat" as C_0012261915233181629258
enum C_0012261915233181629258 {
Binary
Ascii
}
class "FontSystem" as C_0018103396525444607670
class C_0018103396525444607670 {
__
}
class "LineSet" as C_0004042083204579530172
class C_0004042083204579530172 {
__
}
class "Camera3D" as C_0003335296557597753334
class C_0003335296557597753334 {
__
}
class "Renderer" as C_0012293394226519011281
class C_0012293394226519011281 {
__
}
class "RenderingSystem" as C_0012617290600899395085
class C_0012617290600899395085 {
__
}
class "LineSetMaterial" as C_0016499078074027807666
class C_0016499078074027807666 {
__
}
class "Camera2D" as C_0004772751523278429542
class C_0004772751523278429542 {
__
}
}
class "::(anonymous_3894388)" as C_0004069315803342341027
class C_0004069315803342341027 {
__
}
class "::(anonymous_3894496)" as C_0010176918211070091946
class C_0010176918211070091946 {
__
}
class "::(anonymous_3894903)" as C_0012397672561742923697
class C_0012397672561742923697 {
__
}
class "::(anonymous_3895466)" as C_0011714126212037572811
class C_0011714126212037572811 {
__
}
class "::(anonymous_3896281)" as C_0015039680176381321004
class C_0015039680176381321004 {
__
}
class "::stbtt_pack_context" as C_0015163257883966467736
class C_0015163257883966467736 {
__
}
class "::stbtt_fontinfo" as C_0014347797826945286324
class C_0014347797826945286324 {
__
}
class "::stbtt_kerningentry" as C_0017976109491676627978
class C_0017976109491676627978 {
__
}
class "::(anonymous_3899851)" as C_0006869235832941368812
class C_0006869235832941368812 {
__
}
class "::(anonymous_3903744)" as C_0007201705566841843364
class C_0007201705566841843364 {
__
}
class "::(anonymous_3935742)" as C_0018270167873394184592
class C_0018270167873394184592 {
__
}
class "::stbtt__hheap_chunk" as C_0013168067223550509339
class C_0013168067223550509339 {
__
}
class "::stbtt__hheap" as C_0012206945086290900589
class C_0012206945086290900589 {
__
}
class "::stbtt__edge" as C_0015193988808039088839
class C_0015193988808039088839 {
__
}
class "::stbtt__active_edge" as C_0002918974865025628742
class C_0002918974865025628742 {
__
}
class "::(anonymous_3980022)" as C_0012943834722246331274
class C_0012943834722246331274 {
__
}
class "::(anonymous_3996594)" as C_0013943145607170360647
class C_0013943145607170360647 {
__
}
class "::(anonymous_3996729)" as C_0010419821266673786279
class C_0010419821266673786279 {
__
}
class "::stbrp_rect" as C_0012137467413060960464
class C_0012137467413060960464 {
__
}
class "::(anonymous_100719)" as C_0008747684809480672463
class C_0008747684809480672463 {
__
}
class "::(anonymous_305511)" as C_0017498390897333906588
class C_0017498390897333906588 {
__
}
class "::(anonymous_307858)" as C_0002073684624125951688
class C_0002073684624125951688 {
__
}
class "::(anonymous_340819)" as C_0009504704367881793501
class C_0009504704367881793501 {
__
}
class "::(anonymous_341087)" as C_0012305524158899818030
class C_0012305524158899818030 {
__
}
class "::(anonymous_341087)::(img_comp)" as C_0005541560852608425870
class C_0005541560852608425870 {
__
}
class "::(anonymous_385248)" as C_0000059556703984112892
class C_0000059556703984112892 {
__
}
class "::(anonymous_394563)" as C_0001291179422915901221
class C_0001291179422915901221 {
__
}
class "::(anonymous_397140)" as C_0001812768007995950296
class C_0001812768007995950296 {
__
}
class "::(anonymous_413105)" as C_0007276924460741079038
class C_0007276924460741079038 {
__
}
class "::(anonymous_414045)" as C_0009412523263759045054
class C_0009412523263759045054 {
__
}
class "::(anonymous_441555)" as C_0008198423614943747164
class C_0008198423614943747164 {
__
}
class "::(anonymous_469690)" as C_0006160232570504334639
class C_0006160232570504334639 {
__
}
class "::(anonymous_475474)" as C_0015454242674999042507
class C_0015454242674999042507 {
__
}
class "::(anonymous_475573)" as C_0000440855174927814106
class C_0000440855174927814106 {
__
}
package [editor] as C_0014294892614649154174 {
class "ICamera" as C_0012392513117916504192
class C_0012392513117916504192 {
__
}
enum "InputEventType" as C_0014836387176145431385
enum C_0014836387176145431385 {
Key
MouseButton
MouseMove
Scroll
}
enum "MouseButton" as C_0014455060039581215097
enum C_0014455060039581215097 {
Left
Right
Middle
}
enum "KeyCode" as C_0007323383148302924607
enum C_0007323383148302924607 {
Unknown
Escape
Enter
}
class "KeyEvent" as C_0004151759234838647221
class C_0004151759234838647221 {
__
}
class "MouseButtonEvent" as C_0013666644451426937573
class C_0013666644451426937573 {
__
}
class "MouseMoveEvent" as C_0008581239293616271949
class C_0008581239293616271949 {
__
}
class "ScrollEvent" as C_0011261443242447363717
class C_0011261443242447363717 {
__
}
class "InputEvent" as C_0013127421400413273779
class C_0013127421400413273779 {
__
}
enum "ViewMode" as C_0000444967734795832743
enum C_0000444967734795832743 {
View3D
Sketch2D
}
class "ViewState" as C_0009518698327083869908
class C_0009518698327083869908 {
__
}
class "ViewController" as C_0000870412530988749682
class C_0000870412530988749682 {
__
}
class "ITool" as C_0006154972717317574344
class C_0006154972717317574344 {
__
}
enum "CurveMode" as C_0013732163148749854817
enum C_0013732163148749854817 {
Line
Polyline
Face
}
class "SketchCurveTool" as C_0016644337258606574748
class C_0016644337258606574748 {
__
}
class "ToolContext" as C_0010266960129910213859
class C_0010266960129910213859 {
__
}
enum "EditorMode" as C_0011977455350637085562
enum C_0011977455350637085562 {
Normal
InsertPoint
InsertLine
InsertCircle
InsertSketch
Select
}
class "Editor" as C_0004779001296943777362
class C_0004779001296943777362 {
__
}
class "InsertPointTool" as C_0010772455307119123545
class C_0010772455307119123545 {
__
}
class "InsertCircleTool" as C_0004229189529377609215
class C_0004229189529377609215 {
__
}
}
package [occt] as C_0013011181811517066534 {
class "OCCTBackend" as C_0005552224203140920689
class C_0005552224203140920689 {
__
}
}
class "::TopoDS_Shape" as C_0004895117106860695354
class C_0004895117106860695354 {
__
}
package [cmd] as C_0000873857321512580221 {
class "ICommand" as C_0018165937682150704711
class C_0018165937682150704711 {
__
}
class "ExtrudeCommand" as C_0003484520042644381061
class C_0003484520042644381061 {
__
}
}
C_0009782591424950419036 ..> C_0002336784144809892012
C_0009782591424950419036 --> C_0011520313121886889649 : -m_Window
C_0002336784144809892012 --+ C_0009782591424950419036
C_0003665332255534006158 o-- C_0010544746732979417087 : +vertices
C_0004601541543057751943 o-- C_0003665332255534006158 : +mesh
C_0008318067474097148912 ..> C_0001117776075815827793
C_0002168965001534566158 o-- C_0015727311242583973851 : -m_Names
C_0002168965001534566158 o-- C_0003020787640243562673 : -m_Positions
C_0002168965001534566158 o-- C_0007792029716980026922 : -m_Circles
C_0002168965001534566158 o-- C_0007673770080981316552 : -m_Lines
C_0002168965001534566158 o-- C_0005410130188953855426 : -m_Faces
C_0002168965001534566158 o-- C_0011385841506975283125 : -m_Bodies
C_0002168965001534566158 o-- C_0004601541543057751943 : -m_Meshes
C_0002168965001534566158 o-- C_0017265799885947486908 : -m_SketchPlanes
C_0008148040573944691489 ..> C_0001117776075815827793
C_0008148040573944691489 --> C_0002168965001534566158 : -m_Registry
C_0008148040573944691489 --> C_0008318067474097148912 : -m_Backend
C_0009688132585407544578 ..> C_0002168965001534566158
C_0002748428751593370483 --> C_0002168965001534566158 : -m_Registry
C_0002748428751593370483 --> C_0008148040573944691489 : -m_GeometrySystem
C_0006232312961117769811 --> C_0002748428751593370483 : -m_API
C_0004478309705653638278 o-- C_0003858833552866009782 : +frames
C_0016013204355630775624 <|-- C_0013971934287388400616
C_0003259825474666732097 o-- C_0010544746732979417087 : #m_Vertices
C_0003259825474666732097 <|-- C_0005157049738103083941
C_0003571447943244945777 o-- C_0017275191995279928358 : -m_Glyphs
C_0006222801243379437746 ..> C_0016013204355630775624
C_0006222801243379437746 ..> C_0009794304339022573761
C_0003408518362668672340 ..> C_0016013204355630775624
C_0003408518362668672340 --> C_0009794304339022573761 : -m_Shader
C_0003408518362668672340 --> C_0004229009147989461518 : -m_Texture
C_0006222801243379437746 <|-- C_0003408518362668672340
C_0003259825474666732097 <|-- C_0011124824944198641814
C_0003075468144102080741 ..> C_0003571447943244945777
C_0003075468144102080741 ..> C_0005502569225727352671
C_0005502569225727352671 --+ C_0003075468144102080741
C_0008228739837147591974 --> C_0003075468144102080741 : -m_Atlas
C_0014070029187782885848 --+ C_0008228739837147591974
C_0009973741300568769584 ..> C_0003665332255534006158
C_0018103396525444607670 o-- C_0003571447943244945777 : -m_Loader
C_0018103396525444607670 o-- C_0003075468144102080741 : -m_Atlas
C_0003259825474666732097 <|-- C_0004042083204579530172
C_0012392513117916504192 <|-- C_0003335296557597753334
C_0012293394226519011281 ..> C_0011124824944198641814
C_0012293394226519011281 ..> C_0006222801243379437746
C_0012293394226519011281 ..> C_0004042083204579530172
C_0012293394226519011281 ..> C_0005157049738103083941
C_0012293394226519011281 --> C_0016013204355630775624 : -m_Light
C_0012617290600899395085 ..> C_0002168965001534566158
C_0012617290600899395085 ..> C_0009518698327083869908
C_0012617290600899395085 --> C_0012293394226519011281 : -m_Renderer
C_0012617290600899395085 o-- C_0011124824944198641814 : -m_Meshes
C_0012617290600899395085 o-- C_0006222801243379437746 : -m_Material
C_0016499078074027807666 ..> C_0016013204355630775624
C_0016499078074027807666 --> C_0009794304339022573761 : -m_Shader
C_0006222801243379437746 <|-- C_0016499078074027807666
C_0012392513117916504192 <|-- C_0004772751523278429542
C_0013168067223550509339 --> C_0013168067223550509339 : +next
C_0012206945086290900589 --> C_0013168067223550509339 : +head
C_0002918974865025628742 --> C_0002918974865025628742 : +next
C_0012305524158899818030 o-- "4" C_0005541560852608425870 : +img_comp
C_0004151759234838647221 o-- C_0007323383148302924607 : +code
C_0013666644451426937573 o-- C_0014455060039581215097 : +button
C_0013127421400413273779 o-- C_0014836387176145431385 : +type
C_0013127421400413273779 o-- C_0004151759234838647221 : +data
C_0013127421400413273779 o-- C_0013666644451426937573 : +data
C_0013127421400413273779 o-- C_0008581239293616271949 : +data
C_0013127421400413273779 o-- C_0011261443242447363717 : +data
C_0009518698327083869908 o-- C_0000444967734795832743 : +mode
C_0000870412530988749682 ..> C_0013127421400413273779
C_0000870412530988749682 ..> C_0009518698327083869908
C_0000870412530988749682 ..> C_0013666644451426937573
C_0000870412530988749682 ..> C_0008581239293616271949
C_0000870412530988749682 ..> C_0011261443242447363717
C_0000870412530988749682 --> C_0012392513117916504192 : -m_Cam2D
C_0000870412530988749682 --> C_0012392513117916504192 : -m_Cam3D
C_0000870412530988749682 o-- C_0000444967734795832743 : -m_Mode
C_0000870412530988749682 o-- C_0000444967734795832743 : -m_TargetMode
C_0006154972717317574344 ..> C_0010266960129910213859
C_0006154972717317574344 ..> C_0013127421400413273779
C_0016644337258606574748 ..> C_0010266960129910213859
C_0016644337258606574748 ..> C_0013127421400413273779
C_0016644337258606574748 ..> C_0002168965001534566158
C_0016644337258606574748 o-- C_0013732163148749854817 : -m_Mode
C_0006154972717317574344 <|-- C_0016644337258606574748
C_0010266960129910213859 --> C_0002168965001534566158 : -m_Registry
C_0010266960129910213859 --> C_0008148040573944691489 : -m_GeometrySystem
C_0004779001296943777362 ..> C_0013127421400413273779
C_0004779001296943777362 ..> C_0004151759234838647221
C_0004779001296943777362 --> C_0010266960129910213859 : -m_Ctx
C_0004779001296943777362 o-- C_0000870412530988749682 : -m_ViewController
C_0004779001296943777362 o-- C_0011977455350637085562 : -m_Mode
C_0004779001296943777362 o-- C_0011977455350637085562 : -m_Tools
C_0004779001296943777362 o-- C_0006154972717317574344 : -m_Tools
C_0004779001296943777362 --> C_0006154972717317574344 : -m_ActiveTool
C_0010772455307119123545 ..> C_0010266960129910213859
C_0010772455307119123545 ..> C_0013127421400413273779
C_0006154972717317574344 <|-- C_0010772455307119123545
C_0004229189529377609215 ..> C_0010266960129910213859
C_0004229189529377609215 ..> C_0013127421400413273779
C_0006154972717317574344 <|-- C_0004229189529377609215
C_0005552224203140920689 ..> C_0001117776075815827793
C_0005552224203140920689 --> C_0004895117106860695354 : -m_Shapes
C_0008318067474097148912 <|-- C_0005552224203140920689
C_0018165937682150704711 ..> C_0002168965001534566158
C_0018165937682150704711 ..> C_0008148040573944691489
C_0003484520042644381061 ..> C_0002168965001534566158
C_0003484520042644381061 ..> C_0008148040573944691489
C_0018165937682150704711 <|-- C_0003484520042644381061

'Generated with clang-uml, version 0.6.2
'LLVM version Homebrew clang version 21.1.5
@enduml
